:FULLY-SPECIFIED
:FORCE-ALL-JOINTS-BE-3DOF
:DEGREES
918
root -1.29327 14.9535 -35.5473 3.33935 -32.5232 -1.35312
lfemur -30.1465 15.3057 2.93888
ltibia 47.4407 -0 0
lfoot 1.01176 13.3366 -0.75469
ltoes -15.1829 0 0
rfemur -25.6755 -16.2963 8.63809
rtibia 58.8538 -0 0
rfoot -13.5012 -20.3587 2.78049
rtoes -11.4585 0 0
lowerback 14.2589 3.21055 -0.736705
upperback -1.19027 4.29731 1.63506
thorax -9.27337 2.14005 1.21526
lowerneck -4.51823 5.48814 -0.256965
upperneck 6.87721 7.5371 -1.81166
head 3.41182 3.63305 -0.248252
lclavicle -6.01535e-14 -1.51889e-14 -3.84263e-30
lhumerus -4.43452 -15.9711 70.8702
lradius 71.1587 -0 0
lwrist -15.9653 0 0
lhand -33.4814 34.5582 0.0629172
lfingers 7.12502 -0 0
lthumb -6.67862 64.4187 0.0619797
rclavicle -6.01535e-14 -1.51889e-14 -3.84263e-30
rhumerus -47.8693 23.4372 -85.1892
rradius 115.784 -0 0
rwrist -76.0377 0 0
rhand -4.67632 -18.2096 -0.312662
rfingers 7.12502 -0 0
rthumb 21.0957 -46.9705 -0.261712
919
root -1.28476 14.9539 -35.5038 3.29651 -32.2727 -1.31777
lfemur -30.0814 15.2322 2.83911
ltibia 47.5116 -0 0
lfoot 0.860718 13.3804 -0.763534
ltoes -15.2119 0 0
rfemur -25.797 -16.2448 8.63126
rtibia 58.759 -0 0
rfoot -13.3134 -20.2298 2.81339
rtoes -11.3522 0 0
lowerback 14.2545 3.19585 -0.770955
upperback -1.18813 4.27231 1.63997
thorax -9.26817 2.12991 1.2456
lowerneck -4.5086 5.42866 -0.302287
upperneck 6.88859 7.45804 -1.77046
head 3.41306 3.59373 -0.231587
lclavicle -5.96226e-14 -1.5125e-14 -3.88729e-30
lhumerus -4.40816 -16.1877 70.9904
lradius 71.349 -0 0
lwrist -15.7388 0 0
lhand -33.4594 34.5833 0.0636487
lfingers 7.12502 -0 0
lthumb -6.65731 64.4444 0.0627002
rclavicle -5.96226e-14 -1.5125e-14 -3.88729e-30
rhumerus -47.5929 23.4949 -85.1354
rradius 115.726 -0 0
rwrist -75.7344 0 0
rhand -4.62541 -18.2637 -0.316303
rfingers 7.12502 -0 0
rthumb 21.1445 -47.0177 -0.264758
920
root -1.27625 14.9542 -35.4602 3.25397 -32.0221 -1.28275
lfemur -30.0162 15.1587 2.73929
ltibia 47.5824 -0 0
lfoot 0.709667 13.4242 -0.772263
ltoes -15.241 0 0
rfemur -25.9185 -16.1933 8.62433
rtibia 58.6643 -0 0
rfoot -13.1256 -20.1008 2.84586
rtoes -11.246 0 0
lowerback 14.2502 3.18116 -0.805203
upperback -1.18599 4.2473 1.64488
thorax -9.26297 2.11977 1.27593
lowerneck -4.49892 5.36918 -0.347614
upperneck 6.8999 7.37898 -1.72929
head 3.4143 3.55442 -0.214923
lclavicle -5.90918e-14 -1.50612e-14 -3.93136e-30
lhumerus -4.38225 -16.4043 71.1106
lradius 71.5393 -0 0
lwrist -15.5124 0 0
lhand -33.4373 34.6085 0.0643705
lfingers 7.12502 -0 0
lthumb -6.63599 64.47 0.0634113
rclavicle -5.90918e-14 -1.50612e-14 -3.93136e-30
rhumerus -47.3163 23.5524 -85.0813
rradius 115.668 -0 0
rwrist -75.4311 0 0
rhand -4.5745 -18.3178 -0.319895
rfingers 7.12502 -0 0
rthumb 21.1933 -47.065 -0.267764
921
root -1.26774 14.9546 -35.4167 3.21173 -31.7715 -1.24803
lfemur -29.9509 15.0853 2.63942
ltibia 47.6532 -0 0
lfoot 0.55861 13.4681 -0.780875
ltoes -15.27 0 0
rfemur -26.04 -16.1418 8.61728
rtibia 58.5695 -0 0
rfoot -12.9377 -19.9716 2.87791
rtoes -11.1397 0 0
lowerback 14.2458 3.16646 -0.83945
upperback -1.18385 4.2223 1.64979
thorax -9.25778 2.10962 1.30627
lowerneck -4.48919 5.3097 -0.392947
upperneck 6.91116 7.29991 -1.68815
head 3.41552 3.5151 -0.198262
lclavicle -5.8561e-14 -1.49973e-14 -3.97483e-30
lhumerus -4.35678 -16.6211 71.2308
lradius 71.7296 -0 0
lwrist -15.2859 0 0
lhand -33.4152 34.6336 0.0650826
lfingers 7.12502 -0 0
lthumb -6.61468 64.4956 0.0641128
rclavicle -5.8561e-14 -1.49973e-14 -3.97483e-30
rhumerus -47.0395 23.6096 -85.0269
rradius 115.61 -0 0
rwrist -75.1278 0 0
rhand -4.52358 -18.3719 -0.323439
rfingers 7.12502 -0 0
rthumb 21.242 -47.1123 -0.27073
922
root -1.25923 14.955 -35.3732 3.16978 -31.5209 -1.21363
lfemur -29.8855 15.0121 2.53949
ltibia 47.7241 -0 0
lfoot 0.407545 13.5119 -0.789373
ltoes -15.299 0 0
rfemur -26.1614 -16.0903 8.61013
rtibia 58.4748 -0 0
rfoot -12.7497 -19.8424 2.90954
rtoes -11.0335 0 0
lowerback 14.2414 3.15175 -0.873695
upperback -1.18172 4.19729 1.6547
thorax -9.2526 2.09948 1.33661
lowerneck -4.47942 5.25024 -0.438286
upperneck 6.92236 7.22083 -1.64702
head 3.41674 3.47578 -0.181601
lclavicle -5.80301e-14 -1.49335e-14 -4.01772e-30
lhumerus -4.33176 -16.8378 71.351
lradius 71.92 -0 0
lwrist -15.0595 0 0
lhand -33.3931 34.6587 0.065785
lfingers 7.12502 -0 0
lthumb -6.59336 64.5213 0.0648047
rclavicle -5.80301e-14 -1.49335e-14 -4.01772e-30
rhumerus -46.7626 23.6665 -84.9721
rradius 115.552 -0 0
rwrist -74.8245 0 0
rhand -4.47266 -18.426 -0.326935
rfingers 7.12502 -0 0
rthumb 21.2908 -47.1596 -0.273655
923
root -1.25072 14.9553 -35.3296 3.12812 -31.2703 -1.17953
lfemur -29.82 14.9389 2.43951
ltibia 47.7949 -0 0
lfoot 0.256474 13.5558 -0.797754
ltoes -15.3281 0 0
rfemur -26.2828 -16.0389 8.60286
rtibia 58.38 -0 0
rfoot -12.5617 -19.713 2.94074
rtoes -10.9273 0 0
lowerback 14.2371 3.13705 -0.907938
upperback -1.17958 4.17228 1.65961
thorax -9.24742 2.08933 1.36694
lowerneck -4.46961 5.19078 -0.48363
upperneck 6.9335 7.14174 -1.60592
head 3.41794 3.43646 -0.164942
lclavicle -5.74993e-14 -1.48697e-14 -4.06001e-30
lhumerus -4.30718 -17.0546 71.4713
lradius 72.1103 -0 0
lwrist -14.833 0 0
lhand -33.3711 34.6839 0.0664777
lfingers 7.12502 -0 0
lthumb -6.57205 64.5469 0.0654871
rclavicle -5.74993e-14 -1.48697e-14 -4.06001e-30
rhumerus -46.4855 23.7233 -84.917
rradius 115.494 -0 0
rwrist -74.5213 0 0
rhand -4.42174 -18.4801 -0.330383
rfingers 7.12502 -0 0
rthumb 21.3396 -47.2069 -0.27654
924
root -1.24221 14.9557 -35.2861 3.08674 -31.0196 -1.14574
lfemur -29.7544 14.8659 2.33948
ltibia 47.8657 -0 0
lfoot 0.105395 13.5997 -0.80602
ltoes -15.3571 0 0
rfemur -26.4042 -15.9874 8.59548
rtibia 58.2853 -0 0
rfoot -12.3735 -19.5836 2.97152
rtoes -10.821 0 0
lowerback 14.2327 3.12234 -0.94218
upperback -1.17745 4.14728 1.66452
thorax -9.24224 2.07917 1.39727
lowerneck -4.45974 5.13133 -0.528981
upperneck 6.94458 7.06265 -1.56484
head 3.41913 3.39714 -0.148285
lclavicle -5.69685e-14 -1.48058e-14 -4.10171e-30
lhumerus -4.28305 -17.2715 71.5916
lradius 72.3006 -0 0
lwrist -14.6065 0 0
lhand -33.349 34.709 0.0671608
lfingers 7.12502 -0 0
lthumb -6.55073 64.5726 0.06616
rclavicle -5.69685e-14 -1.48058e-14 -4.10171e-30
rhumerus -46.2082 23.7798 -84.8616
rradius 115.436 -0 0
rwrist -74.218 0 0
rhand -4.37082 -18.5342 -0.333783
rfingers 7.12502 -0 0
rthumb 21.3884 -47.2542 -0.279385
925
root -1.2337 14.9561 -35.2426 3.04565 -30.7689 -1.11225
lfemur -29.6886 14.793 2.2394
ltibia 47.9365 -0 0
lfoot -0.0456893 13.6437 -0.81417
ltoes -15.3861 0 0
rfemur -26.5256 -15.936 8.58799
rtibia 58.1905 -0 0
rfoot -12.1853 -19.454 3.00187
rtoes -10.7148 0 0
lowerback 14.2284 3.10763 -0.976421
upperback -1.17532 4.12227 1.66942
thorax -9.23708 2.06902 1.42761
lowerneck -4.44983 5.07189 -0.574337
upperneck 6.9556 6.98355 -1.52378
head 3.42031 3.35781 -0.131629
lclavicle -5.64376e-14 -1.4742e-14 -4.14282e-30
lhumerus -4.25937 -17.4884 71.712
lradius 72.4909 -0 0
lwrist -14.3801 0 0
lhand -33.3269 34.7341 0.0678342
lfingers 7.12502 -0 0
lthumb -6.52942 64.5982 0.0668234
rclavicle -5.64376e-14 -1.4742e-14 -4.14282e-30
rhumerus -45.9307 23.836 -84.8058
rradius 115.378 -0 0
rwrist -73.9147 0 0
rhand -4.31989 -18.5883 -0.337135
rfingers 7.12502 -0 0
rthumb 21.4372 -47.3014 -0.28219
926
root -1.22519 14.9565 -35.199 3.00483 -30.5182 -1.07905
lfemur -29.6228 14.7202 2.13926
ltibia 48.0074 -0 0
lfoot -0.196781 13.6876 -0.822205
ltoes -15.4152 0 0
rfemur -26.6469 -15.8846 8.58038
rtibia 58.0957 -0 0
rfoot -11.9971 -19.3243 3.0318
rtoes -10.6086 0 0
lowerback 14.2241 3.09292 -1.01066
upperback -1.1732 4.09726 1.67433
thorax -9.23191 2.05886 1.45794
lowerneck -4.43987 5.01245 -0.6197
upperneck 6.96656 6.90443 -1.48275
head 3.42147 3.31849 -0.114974
lclavicle -5.59068e-14 -1.46781e-14 -4.18333e-30
lhumerus -4.23614 -17.7053 71.8324
lradius 72.6812 -0 0
lwrist -14.1536 0 0
lhand -33.3048 34.7593 0.0684979
lfingers 7.12502 -0 0
lthumb -6.5081 64.6239 0.0674772
rclavicle -5.59068e-14 -1.46781e-14 -4.18333e-30
rhumerus -45.6531 23.892 -84.7498
rradius 115.32 -0 0
rwrist -73.6114 0 0
rhand -4.26896 -18.6424 -0.340439
rfingers 7.12502 -0 0
rthumb 21.486 -47.3487 -0.284955
927
root -1.21668 14.9568 -35.1555 2.96428 -30.2675 -1.04614
lfemur -29.5568 14.6475 2.03907
ltibia 48.0782 -0 0
lfoot -0.347878 13.7316 -0.830123
ltoes -15.4442 0 0
rfemur -26.7682 -15.8332 8.57267
rtibia 58.001 -0 0
rfoot -11.8087 -19.1946 3.0613
rtoes -10.5023 0 0
lowerback 14.2197 3.07821 -1.0449
upperback -1.17107 4.07225 1.67923
thorax -9.22675 2.0487 1.48827
lowerneck -4.42987 4.95303 -0.665069
upperneck 6.97746 6.82532 -1.44174
head 3.42263 3.27917 -0.0983215
lclavicle -5.5376e-14 -1.46143e-14 -4.22326e-30
lhumerus -4.21337 -17.9223 71.9529
lradius 72.8716 -0 0
lwrist -13.9272 0 0
lhand -33.2828 34.7844 0.0691519
lfingers 7.12502 -0 0
lthumb -6.48679 64.6495 0.0681214
rclavicle -5.5376e-14 -1.46143e-14 -4.22326e-30
rhumerus -45.3752 23.9477 -84.6934
rradius 115.262 -0 0
rwrist -73.3081 0 0
rhand -4.21802 -18.6965 -0.343695
rfingers 7.12502 -0 0
rthumb 21.5347 -47.396 -0.287679
928
root -1.20817 14.9572 -35.112 2.924 -30.0168 -1.01352
lfemur -29.4908 14.5749 1.93883
ltibia 48.149 -0 0
lfoot -0.498982 13.7756 -0.837925
ltoes -15.4732 0 0
rfemur -26.8895 -15.7818 8.56484
rtibia 57.9062 -0 0
rfoot -11.6203 -19.0647 3.09038
rtoes -10.3961 0 0
lowerback 14.2154 3.06349 -1.07913
upperback -1.16895 4.04725 1.68414
thorax -9.2216 2.03854 1.51859
lowerneck -4.41982 4.89361 -0.710445
upperneck 6.9883 6.74619 -1.40075
head 3.42377 3.23985 -0.08167
lclavicle -5.48451e-14 -1.45504e-14 -4.2626e-30
lhumerus -4.19104 -18.1394 72.0734
lradius 73.0619 -0 0
lwrist -13.7007 0 0
lhand -33.2607 34.8095 0.0697962
lfingers 7.12502 -0 0
lthumb -6.46547 64.6751 0.0687561
rclavicle -5.48451e-14 -1.45504e-14 -4.2626e-30
rhumerus -45.0972 24.0032 -84.6367
rradius 115.204 -0 0
rwrist -73.0048 0 0
rhand -4.16708 -18.7507 -0.346902
rfingers 7.12502 -0 0
rthumb 21.5835 -47.4433 -0.290363
929
root -1.19966 14.9576 -35.0684 2.88399 -29.766 -0.981186
lfemur -29.4246 14.5024 1.83853
ltibia 48.2198 -0 0
lfoot -0.650092 13.8196 -0.845611
ltoes -15.5023 0 0
rfemur -27.0108 -15.7304 8.55691
rtibia 57.8115 -0 0
rfoot -11.4318 -18.9347 3.11903
rtoes -10.2898 0 0
lowerback 14.2111 3.04877 -1.11337
upperback -1.16683 4.02224 1.68904
thorax -9.21645 2.02837 1.54892
lowerneck -4.40972 4.8342 -0.755827
upperneck 6.99909 6.66706 -1.35978
head 3.42491 3.20053 -0.0650199
lclavicle -5.43143e-14 -1.44866e-14 -4.30134e-30
lhumerus -4.16917 -18.3565 72.194
lradius 73.2522 -0 0
lwrist -13.4742 0 0
lhand -33.2386 34.8347 0.0704309
lfingers 7.12502 -0 0
lthumb -6.44416 64.7008 0.0693813
rclavicle -5.43143e-14 -1.44866e-14 -4.30134e-30
rhumerus -44.819 24.0585 -84.5797
rradius 115.146 -0 0
rwrist -72.7016 0 0
rhand -4.11614 -18.8048 -0.350062
rfingers 7.12502 -0 0
rthumb 21.6323 -47.4906 -0.293006
930
root -1.19115 14.9579 -35.0249 2.84424 -29.5152 -0.949134
lfemur -29.3583 14.4301 1.73818
ltibia 48.2907 -0 0
lfoot -0.801209 13.8636 -0.853182
ltoes -15.5313 0 0
rfemur -27.1321 -15.6791 8.54886
rtibia 57.7167 -0 0
rfoot -11.2433 -18.8047 3.14725
rtoes -10.1836 0 0
lowerback 14.2068 3.03405 -1.1476
upperback -1.16472 3.99723 1.69394
thorax -9.21131 2.0182 1.57925
lowerneck -4.39958 4.77479 -0.801215
upperneck 7.00982 6.58791 -1.31883
head 3.42603 3.16121 -0.0483712
lclavicle -5.37835e-14 -1.44228e-14 -4.33949e-30
lhumerus -4.14775 -18.5736 72.3146
lradius 73.4425 -0 0
lwrist -13.2478 0 0
lhand -33.2165 34.8598 0.0710558
lfingers 7.12502 -0 0
lthumb -6.42284 64.7264 0.069997
rclavicle -5.37835e-14 -1.44228e-14 -4.33949e-30
rhumerus -44.5406 24.1135 -84.5223
rradius 115.088 -0 0
rwrist -72.3983 0 0
rhand -4.0652 -18.8589 -0.353173
rfingers 7.12502 -0 0
rthumb 21.6811 -47.5379 -0.29561
